<svg width="143" height="32" viewBox="0 0 143 32" fill="none" xmlns="http://www.w3.org/2000/svg">
<path d="M24.1641 7.65906C22.543 6.87826 20.8325 6.32099 19.0751 6.00114C19.0592 5.99832 19.0428 6.00076 19.0283 6.0081C19.0137 6.01544 19.0017 6.02733 18.9938 6.04214C18.7735 6.45211 18.5298 6.98835 18.3595 7.40816C16.4651 7.10643 14.5383 7.10643 12.6439 7.40816C12.4539 6.9405 12.239 6.48443 12.0002 6.04214C11.9922 6.02749 11.9801 6.01574 11.9656 6.00842C11.9511 6.0011 11.9348 5.99856 11.9189 6.00114C10.1611 6.31928 8.45021 6.87684 6.82991 7.65906C6.81605 7.66461 6.80445 7.67504 6.7971 7.68858C3.55651 12.7706 2.66745 17.7279 3.10339 22.623C3.10495 22.6459 3.11901 22.6689 3.1362 22.6836C5.02325 24.1507 7.13396 25.2708 9.37832 25.9962C9.39417 26.0014 9.4112 26.0013 9.42693 25.9957C9.44267 25.99 9.45629 25.9793 9.46582 25.965C9.94707 25.2763 10.3752 24.5498 10.7439 23.7856C10.7516 23.7699 10.7543 23.752 10.7514 23.7345C10.7486 23.7171 10.7405 23.7011 10.7283 23.6889C10.7202 23.6809 10.7107 23.6747 10.7002 23.6708C10.027 23.3993 9.37503 23.0731 8.7502 22.6951C8.73275 22.6847 8.71977 22.6677 8.71395 22.6476C8.70814 22.6274 8.70993 22.6057 8.71895 22.5869C8.72427 22.5747 8.73231 22.564 8.74239 22.5557C8.87364 22.4524 9.00489 22.3442 9.12989 22.236C9.14093 22.2266 9.15418 22.2206 9.16821 22.2186C9.18225 22.2166 9.19655 22.2186 9.20957 22.2245C13.3017 24.1858 17.7314 24.1858 21.7735 22.2245C21.787 22.2183 21.8018 22.2162 21.8164 22.2182C21.831 22.2202 21.8448 22.2264 21.8563 22.236C21.9813 22.3442 22.1126 22.4524 22.2438 22.5557C22.2544 22.5639 22.263 22.5747 22.2687 22.5872C22.2744 22.5996 22.277 22.6134 22.2764 22.6272C22.2758 22.641 22.2719 22.6544 22.2651 22.6663C22.2584 22.6781 22.2489 22.688 22.2376 22.6951C21.6142 23.0765 20.9614 23.4024 20.286 23.6692C20.2752 23.6733 20.2655 23.6798 20.2574 23.6883C20.2493 23.6968 20.243 23.7071 20.2391 23.7184C20.2355 23.7294 20.2341 23.741 20.2349 23.7525C20.2357 23.7641 20.2387 23.7754 20.2438 23.7856C20.6188 24.5482 21.0485 25.2763 21.5204 25.965C21.5299 25.9793 21.5435 25.99 21.5593 25.9957C21.575 26.0013 21.592 26.0014 21.6079 25.9962C23.856 25.2731 25.9701 24.1528 27.8594 22.6836C27.8688 22.6768 27.8767 22.6677 27.8824 22.6572C27.8881 22.6467 27.8914 22.635 27.8922 22.623C28.4141 16.9637 27.0188 12.0474 24.1954 7.69022C24.1925 7.68302 24.1883 7.67653 24.1829 7.67116C24.1775 7.66579 24.1711 7.66167 24.1641 7.65906ZM11.3549 19.6417C10.1221 19.6417 9.10801 18.4544 9.10801 16.9982C9.10801 15.5403 10.1033 14.353 11.3549 14.353C12.6158 14.353 13.6205 15.5502 13.6017 16.9982C13.6017 18.4544 12.6064 19.6417 11.3549 19.6417ZM19.661 19.6417C18.4298 19.6417 17.4142 18.4544 17.4142 16.9982C17.4142 15.5403 18.4095 14.353 19.661 14.353C20.922 14.353 21.9282 15.5502 21.9079 16.9982C21.9079 18.4544 20.922 19.6417 19.661 19.6417Z" fill="#ABB2BF"/>
<path d="M42.512 10.484L42.376 17.868H41.168L41.008 10.484H42.512ZM41.784 19.54C42.0933 19.54 42.3493 19.644 42.552 19.852C42.76 20.06 42.864 20.3107 42.864 20.604C42.864 20.9027 42.76 21.1587 42.552 21.372C42.3493 21.58 42.0933 21.684 41.784 21.684C41.48 21.684 41.2267 21.58 41.024 21.372C40.8213 21.1587 40.72 20.9027 40.72 20.604C40.72 20.3107 40.8213 20.06 41.024 19.852C41.2267 19.644 41.48 19.54 41.784 19.54ZM49.9938 11.62V15.332H54.0738V16.476H49.9938V20.388H55.0017V21.5H48.6018V10.484H54.8577L54.6978 11.62H49.9938ZM61.0755 9.684V19.42C61.0755 19.836 61.2035 20.132 61.4595 20.308C61.7208 20.4787 62.0568 20.564 62.4675 20.564C62.7235 20.564 62.9662 20.5373 63.1955 20.484C63.4248 20.4307 63.6542 20.3587 63.8835 20.268L64.2435 21.252C64.0142 21.364 63.7288 21.4627 63.3875 21.548C63.0515 21.6387 62.6702 21.684 62.2435 21.684C61.4968 21.684 60.8915 21.4787 60.4275 21.068C59.9635 20.652 59.7315 20.0787 59.7315 19.348V10.748H57.1475V9.684H61.0755ZM71.6533 13.076V20.436H74.0293V21.5H67.7093V20.436H70.3093V14.14H67.7893V13.076H71.6533ZM70.5813 9.132C70.8799 9.132 71.1173 9.22267 71.2933 9.404C71.4746 9.58533 71.5653 9.80667 71.5653 10.068C71.5653 10.34 71.4746 10.5693 71.2933 10.756C71.1173 10.9373 70.8799 11.028 70.5813 11.028C70.2986 11.028 70.0666 10.9373 69.8853 10.756C69.7039 10.5693 69.6133 10.34 69.6133 10.068C69.6133 9.80667 69.7039 9.58533 69.8853 9.404C70.0666 9.22267 70.2986 9.132 70.5813 9.132ZM83.015 19.66C83.015 19.996 83.071 20.2413 83.183 20.396C83.295 20.5507 83.4683 20.6653 83.703 20.74L83.375 21.684C83.0123 21.636 82.695 21.5213 82.423 21.34C82.151 21.1533 81.9537 20.8733 81.831 20.5C81.527 20.8893 81.1483 21.1853 80.695 21.388C80.2417 21.5853 79.7403 21.684 79.191 21.684C78.3483 21.684 77.6843 21.4467 77.199 20.972C76.7137 20.4973 76.471 19.868 76.471 19.084C76.471 18.2147 76.8097 17.548 77.487 17.084C78.1643 16.62 79.143 16.388 80.423 16.388H81.663V15.684C81.663 15.076 81.4843 14.6467 81.127 14.396C80.775 14.14 80.2843 14.012 79.655 14.012C79.3777 14.012 79.0523 14.0467 78.679 14.116C78.3057 14.18 77.9003 14.2893 77.463 14.444L77.111 13.428C77.6283 13.236 78.1137 13.1 78.567 13.02C79.0203 12.94 79.4523 12.9 79.863 12.9C80.9137 12.9 81.7003 13.1453 82.223 13.636C82.751 14.1213 83.015 14.7827 83.015 15.62V19.66ZM79.535 20.66C79.951 20.66 80.3483 20.556 80.727 20.348C81.1057 20.1347 81.4177 19.8413 81.663 19.468V17.3H80.447C79.519 17.3 78.863 17.46 78.479 17.78C78.1003 18.1 77.911 18.5293 77.911 19.068C77.911 19.5907 78.0443 19.988 78.311 20.26C78.583 20.5267 78.991 20.66 79.535 20.66ZM89.4408 20.572C90.0861 20.572 90.5954 20.452 90.9688 20.212C91.3474 19.9667 91.5368 19.6413 91.5368 19.236C91.5368 18.98 91.4888 18.7587 91.3928 18.572C91.3021 18.3853 91.1128 18.2173 90.8248 18.068C90.5368 17.9187 90.0941 17.7693 89.4968 17.62C88.9154 17.476 88.4088 17.3107 87.9768 17.124C87.5501 16.932 87.2168 16.684 86.9768 16.38C86.7421 16.076 86.6248 15.6813 86.6248 15.196C86.6248 14.7213 86.7581 14.3133 87.0247 13.972C87.2968 13.6253 87.6728 13.3613 88.1528 13.18C88.6328 12.9933 89.1901 12.9 89.8248 12.9C90.5021 12.9 91.0914 12.9907 91.5928 13.172C92.0994 13.348 92.5288 13.5667 92.8808 13.828L92.2888 14.74C91.9688 14.5213 91.6168 14.3427 91.2328 14.204C90.8488 14.06 90.3848 13.988 89.8408 13.988C89.1794 13.988 88.7101 14.092 88.4328 14.3C88.1554 14.5027 88.0168 14.7667 88.0168 15.092C88.0168 15.3373 88.0834 15.5427 88.2168 15.708C88.3554 15.868 88.5874 16.0147 88.9128 16.148C89.2381 16.276 89.6861 16.4173 90.2568 16.572C90.8061 16.716 91.2834 16.8893 91.6888 17.092C92.0994 17.2947 92.4194 17.5613 92.6488 17.892C92.8781 18.2227 92.9928 18.6493 92.9928 19.172C92.9928 19.7693 92.8221 20.2547 92.4808 20.628C92.1394 20.996 91.6968 21.2653 91.1528 21.436C90.6141 21.6013 90.0434 21.684 89.4408 21.684C88.6781 21.684 88.0274 21.5747 87.4888 21.356C86.9554 21.132 86.5074 20.8627 86.1447 20.548L86.9128 19.66C87.2434 19.932 87.6221 20.1533 88.0488 20.324C88.4808 20.4893 88.9448 20.572 89.4408 20.572ZM101.899 14.204L101.427 17.748H102.723V18.788H101.275L100.939 21.5H99.7865L100.147 18.788H97.8185L97.4665 21.5H96.3145L96.6745 18.788H95.4105V17.748H96.8105L97.2985 14.204H96.0025V13.156H97.4345L97.7865 10.484H98.9385L98.5545 13.156H100.907L101.259 10.484H102.411L102.035 13.156H103.315V14.204H101.899ZM97.9545 17.748H100.283L100.771 14.204H98.4265L97.9545 17.748ZM108.452 10.308C109.146 10.308 109.743 10.4333 110.244 10.684C110.751 10.9293 111.143 11.2627 111.42 11.684C111.698 12.1 111.836 12.5587 111.836 13.06C111.836 13.5027 111.738 13.9053 111.54 14.268C111.343 14.6307 111.082 14.9293 110.756 15.164C110.431 15.3987 110.074 15.5533 109.684 15.628C110.116 15.66 110.522 15.7827 110.9 15.996C111.279 16.204 111.588 16.5027 111.828 16.892C112.068 17.276 112.188 17.7533 112.188 18.324C112.188 18.9587 112.028 19.532 111.708 20.044C111.388 20.5507 110.94 20.9507 110.364 21.244C109.794 21.5373 109.127 21.684 108.364 21.684C107.751 21.684 107.138 21.5667 106.524 21.332C105.916 21.0973 105.402 20.724 104.98 20.212L105.884 19.476C106.199 19.844 106.572 20.1187 107.004 20.3C107.442 20.4813 107.884 20.572 108.332 20.572C109.1 20.572 109.7 20.372 110.132 19.972C110.564 19.5667 110.78 19.0173 110.78 18.324C110.78 17.8013 110.679 17.388 110.476 17.084C110.279 16.78 110.01 16.564 109.668 16.436C109.327 16.3027 108.938 16.236 108.5 16.236H107.572L107.74 15.172H108.388C108.746 15.172 109.082 15.1053 109.396 14.972C109.716 14.8333 109.978 14.62 110.18 14.332C110.383 14.044 110.484 13.684 110.484 13.252C110.484 12.644 110.282 12.18 109.876 11.86C109.471 11.54 108.98 11.38 108.404 11.38C107.924 11.38 107.506 11.4653 107.148 11.636C106.791 11.8013 106.431 12.0547 106.068 12.396L105.324 11.572C105.794 11.1293 106.292 10.8093 106.82 10.612C107.348 10.4093 107.892 10.308 108.452 10.308ZM121.542 10.484L121.342 11.556H116.99V15.028C117.326 14.8467 117.643 14.724 117.942 14.66C118.246 14.5907 118.563 14.556 118.894 14.556C119.491 14.556 120.017 14.692 120.47 14.964C120.923 15.2307 121.275 15.6227 121.526 16.14C121.777 16.6573 121.902 17.2813 121.902 18.012C121.902 18.7427 121.747 19.3853 121.438 19.94C121.134 20.4947 120.705 20.924 120.15 21.228C119.595 21.532 118.937 21.684 118.174 21.684C117.513 21.684 116.921 21.5667 116.398 21.332C115.881 21.0973 115.409 20.772 114.982 20.356L115.814 19.556C116.15 19.8973 116.51 20.1533 116.894 20.324C117.283 20.4893 117.715 20.572 118.19 20.572C118.915 20.572 119.481 20.3533 119.886 19.916C120.291 19.4733 120.494 18.8253 120.494 17.972C120.494 17.38 120.406 16.9133 120.23 16.572C120.054 16.2307 119.814 15.988 119.51 15.844C119.211 15.6947 118.878 15.62 118.51 15.62C118.185 15.62 117.897 15.652 117.646 15.716C117.395 15.7747 117.11 15.8653 116.79 15.988H115.71V10.484H121.542ZM129.32 10.484V21.18H127.976V11.94L125.448 13.476L124.864 12.516L128.144 10.484H129.32ZM131.624 20.404V21.5H125.264V20.404H131.624ZM137.57 10.324C138.37 10.324 139.036 10.508 139.57 10.876C140.103 11.244 140.5 11.764 140.762 12.436C141.028 13.108 141.161 13.9053 141.161 14.828C141.161 15.9373 141.047 16.8787 140.818 17.652C140.594 18.42 140.244 19.0627 139.77 19.58C139.295 20.0973 138.687 20.532 137.946 20.884C137.204 21.236 136.319 21.5533 135.289 21.836L134.978 20.812C136.023 20.5187 136.892 20.172 137.586 19.772C138.279 19.3667 138.804 18.8573 139.162 18.244C139.519 17.6253 139.711 16.8573 139.738 15.94L139.762 15.172C139.767 14.2547 139.69 13.5213 139.53 12.972C139.375 12.4173 139.135 12.02 138.81 11.78C138.49 11.5347 138.076 11.412 137.57 11.412C136.855 11.412 136.314 11.6307 135.946 12.068C135.578 12.5053 135.394 13.1453 135.394 13.988C135.394 14.8253 135.57 15.436 135.922 15.82C136.279 16.1987 136.772 16.388 137.402 16.388C137.951 16.388 138.426 16.2333 138.826 15.924C139.226 15.6147 139.604 15.1987 139.962 14.676L139.954 15.844C139.628 16.3133 139.236 16.7 138.778 17.004C138.319 17.308 137.778 17.46 137.154 17.46C136.54 17.46 135.996 17.3187 135.522 17.036C135.047 16.7533 134.674 16.3507 134.402 15.828C134.135 15.3053 134.002 14.676 134.002 13.94C134.002 13.156 134.162 12.4947 134.482 11.956C134.802 11.4173 135.231 11.012 135.77 10.74C136.308 10.4627 136.908 10.324 137.57 10.324Z" fill="#ABB2BF"/>
</svg>
