<svg width="172" height="32" viewBox="0 0 172 32" fill="none" xmlns="http://www.w3.org/2000/svg">
<path d="M5.07187 9.20292C5.2168 8.57709 5.57307 8.01832 6.08232 7.6181C6.59158 7.21789 7.22365 6.99996 7.875 7H25.125C25.7764 6.99996 26.4084 7.21789 26.9177 7.6181C27.4269 8.01832 27.7832 8.57709 27.9281 9.20292L16.5 16.0865L5.07187 9.20292ZM5 10.8207V20.8847L13.3418 15.8442L5 10.8207ZM14.7189 16.6758L5.27456 22.3807C5.50791 22.8657 5.87619 23.2753 6.33656 23.5619C6.79693 23.8486 7.33044 24.0005 7.875 24H25.125C25.6695 24.0001 26.2028 23.8479 26.6629 23.561C27.123 23.274 27.491 22.8643 27.724 22.3793L18.2796 16.6744L16.5 17.7468L14.7189 16.6744V16.6758ZM19.6582 15.8457L28 20.8847V10.8207L19.6582 15.8442V15.8457Z" fill="#ABB2BF"/>
<path d="M39.664 17.764C39.6907 18.4147 39.816 18.948 40.04 19.364C40.264 19.7747 40.56 20.0787 40.928 20.276C41.296 20.468 41.696 20.564 42.128 20.564C42.56 20.564 42.9493 20.5 43.296 20.372C43.648 20.244 44.008 20.0547 44.376 19.804L45.008 20.692C44.6133 21.0013 44.1627 21.244 43.656 21.42C43.1547 21.596 42.64 21.684 42.112 21.684C41.296 21.684 40.6 21.5 40.024 21.132C39.448 20.764 39.008 20.252 38.704 19.596C38.4053 18.9347 38.256 18.1693 38.256 17.3C38.256 16.4467 38.408 15.6893 38.712 15.028C39.016 14.3667 39.4427 13.8467 39.992 13.468C40.5413 13.0893 41.1893 12.9 41.936 12.9C42.6453 12.9 43.256 13.068 43.768 13.404C44.28 13.7347 44.672 14.2093 44.944 14.828C45.2213 15.4413 45.36 16.1747 45.36 17.028C45.36 17.172 45.3573 17.308 45.352 17.436C45.3467 17.5587 45.3387 17.668 45.328 17.764H39.664ZM41.952 14.004C41.328 14.004 40.8053 14.2253 40.384 14.668C39.968 15.1107 39.7307 15.796 39.672 16.724H44.064C44.048 15.8227 43.8507 15.1453 43.472 14.692C43.0933 14.2333 42.5867 14.004 41.952 14.004ZM51.4818 9.684V19.42C51.4818 19.836 51.6098 20.132 51.8658 20.308C52.1271 20.4787 52.4631 20.564 52.8738 20.564C53.1298 20.564 53.3724 20.5373 53.6018 20.484C53.8311 20.4307 54.0604 20.3587 54.2898 20.268L54.6498 21.252C54.4204 21.364 54.1351 21.4627 53.7938 21.548C53.4578 21.6387 53.0764 21.684 52.6498 21.684C51.9031 21.684 51.2978 21.4787 50.8338 21.068C50.3698 20.652 50.1378 20.0787 50.1378 19.348V10.748H47.5538V9.684H51.4818ZM62.0595 13.076V20.436H64.4355V21.5H58.1155V20.436H60.7155V14.14H58.1955V13.076H62.0595ZM60.9875 9.132C61.2862 9.132 61.5235 9.22267 61.6995 9.404C61.8808 9.58533 61.9715 9.80667 61.9715 10.068C61.9715 10.34 61.8808 10.5693 61.6995 10.756C61.5235 10.9373 61.2862 11.028 60.9875 11.028C60.7048 11.028 60.4728 10.9373 60.2915 10.756C60.1102 10.5693 60.0195 10.34 60.0195 10.068C60.0195 9.80667 60.1102 9.58533 60.2915 9.404C60.4728 9.22267 60.7048 9.132 60.9875 9.132ZM73.4213 19.66C73.4213 19.996 73.4773 20.2413 73.5893 20.396C73.7013 20.5507 73.8746 20.6653 74.1093 20.74L73.7812 21.684C73.4186 21.636 73.1013 21.5213 72.8293 21.34C72.5573 21.1533 72.3599 20.8733 72.2373 20.5C71.9333 20.8893 71.5546 21.1853 71.1013 21.388C70.6479 21.5853 70.1466 21.684 69.5973 21.684C68.7546 21.684 68.0906 21.4467 67.6053 20.972C67.1199 20.4973 66.8773 19.868 66.8773 19.084C66.8773 18.2147 67.2159 17.548 67.8932 17.084C68.5706 16.62 69.5493 16.388 70.8293 16.388H72.0693V15.684C72.0693 15.076 71.8906 14.6467 71.5333 14.396C71.1813 14.14 70.6906 14.012 70.0613 14.012C69.7839 14.012 69.4586 14.0467 69.0853 14.116C68.7119 14.18 68.3066 14.2893 67.8693 14.444L67.5173 13.428C68.0346 13.236 68.5199 13.1 68.9733 13.02C69.4266 12.94 69.8586 12.9 70.2693 12.9C71.3199 12.9 72.1066 13.1453 72.6293 13.636C73.1573 14.1213 73.4213 14.7827 73.4213 15.62V19.66ZM69.9413 20.66C70.3573 20.66 70.7546 20.556 71.1333 20.348C71.5119 20.1347 71.8239 19.8413 72.0693 19.468V17.3H70.8533C69.9253 17.3 69.2693 17.46 68.8853 17.78C68.5066 18.1 68.3173 18.5293 68.3173 19.068C68.3173 19.5907 68.4506 19.988 68.7173 20.26C68.9893 20.5267 69.3973 20.66 69.9413 20.66ZM79.847 20.572C80.4923 20.572 81.0017 20.452 81.375 20.212C81.7537 19.9667 81.943 19.6413 81.943 19.236C81.943 18.98 81.895 18.7587 81.799 18.572C81.7083 18.3853 81.519 18.2173 81.231 18.068C80.943 17.9187 80.5003 17.7693 79.903 17.62C79.3217 17.476 78.815 17.3107 78.383 17.124C77.9563 16.932 77.623 16.684 77.383 16.38C77.1483 16.076 77.031 15.6813 77.031 15.196C77.031 14.7213 77.1643 14.3133 77.431 13.972C77.703 13.6253 78.079 13.3613 78.559 13.18C79.039 12.9933 79.5963 12.9 80.231 12.9C80.9083 12.9 81.4977 12.9907 81.999 13.172C82.5057 13.348 82.935 13.5667 83.287 13.828L82.695 14.74C82.375 14.5213 82.023 14.3427 81.639 14.204C81.255 14.06 80.791 13.988 80.247 13.988C79.5857 13.988 79.1163 14.092 78.839 14.3C78.5617 14.5027 78.423 14.7667 78.423 15.092C78.423 15.3373 78.4897 15.5427 78.623 15.708C78.7617 15.868 78.9937 16.0147 79.319 16.148C79.6443 16.276 80.0923 16.4173 80.663 16.572C81.2123 16.716 81.6897 16.8893 82.095 17.092C82.5057 17.2947 82.8257 17.5613 83.055 17.892C83.2843 18.2227 83.399 18.6493 83.399 19.172C83.399 19.7693 83.2283 20.2547 82.887 20.628C82.5457 20.996 82.103 21.2653 81.559 21.436C81.0203 21.6013 80.4497 21.684 79.847 21.684C79.0843 21.684 78.4337 21.5747 77.895 21.356C77.3617 21.132 76.9137 20.8627 76.551 20.548L77.319 19.66C77.6497 19.932 78.0283 20.1533 78.455 20.324C78.887 20.4893 79.351 20.572 79.847 20.572ZM89.5048 10.308C90.3314 10.308 91.0274 10.4333 91.5928 10.684C92.1634 10.9293 92.6274 11.268 92.9848 11.7C93.3474 12.132 93.6248 12.6333 93.8168 13.204C94.0141 13.7693 94.1501 14.372 94.2248 15.012C94.2994 15.6467 94.3368 16.292 94.3368 16.948C94.3368 18.292 94.2728 19.4093 94.1448 20.3C94.0221 21.1853 93.7928 21.8467 93.4568 22.284C93.1208 22.7267 92.6301 22.948 91.9848 22.948C91.6541 22.948 91.3688 22.868 91.1288 22.708C90.8888 22.548 90.6914 22.3453 90.5368 22.1C90.3821 21.86 90.2701 21.612 90.2008 21.356C90.1314 21.0947 90.0994 20.868 90.1048 20.676H90.0408C89.9448 20.9213 89.8061 21.164 89.6248 21.404C89.4488 21.6387 89.2168 21.8333 88.9288 21.988C88.6408 22.148 88.2834 22.228 87.8568 22.228C87.2754 22.228 86.8061 22.0707 86.4488 21.756C86.0968 21.4413 85.8408 21.0067 85.6808 20.452C85.5208 19.8973 85.4408 19.268 85.4408 18.564C85.4408 17.172 85.7181 16.1373 86.2728 15.46C86.8274 14.7773 87.5954 14.436 88.5768 14.436C88.9501 14.436 89.3074 14.476 89.6488 14.556C89.9901 14.636 90.3848 14.796 90.8328 15.036V19.764C90.8328 20.34 90.8834 20.78 90.9848 21.084C91.0861 21.3827 91.2221 21.588 91.3928 21.7C91.5634 21.812 91.7528 21.868 91.9608 21.868C92.2114 21.868 92.4061 21.7427 92.5448 21.492C92.6834 21.2413 92.7821 20.892 92.8408 20.444C92.8994 19.996 92.9341 19.476 92.9448 18.884C92.9554 18.2867 92.9608 17.6467 92.9608 16.964C92.9608 16.2013 92.9181 15.4893 92.8328 14.828C92.7474 14.1613 92.5848 13.5773 92.3448 13.076C92.1048 12.5747 91.7581 12.1827 91.3048 11.9C90.8514 11.6173 90.2568 11.476 89.5208 11.476C89.0034 11.476 88.4381 11.572 87.8248 11.764C87.2168 11.9507 86.5714 12.3453 85.8888 12.948L85.1208 12.052C85.8354 11.428 86.5661 10.9827 87.3128 10.716C88.0648 10.444 88.7954 10.308 89.5048 10.308ZM88.6408 15.428C87.9101 15.428 87.4114 15.692 87.1448 16.22C86.8781 16.748 86.7448 17.5293 86.7448 18.564C86.7448 19.0867 86.7821 19.548 86.8568 19.948C86.9368 20.3427 87.0701 20.6547 87.2568 20.884C87.4434 21.108 87.6968 21.22 88.0168 21.22C88.3901 21.22 88.6834 21.1347 88.8968 20.964C89.1154 20.7933 89.2808 20.5987 89.3928 20.38C89.5101 20.156 89.6008 19.9667 89.6648 19.812V15.668C89.4994 15.5827 89.3341 15.5213 89.1688 15.484C89.0088 15.4467 88.8328 15.428 88.6408 15.428ZM97.2265 17.764C97.2532 18.4147 97.3785 18.948 97.6025 19.364C97.8265 19.7747 98.1225 20.0787 98.4905 20.276C98.8585 20.468 99.2585 20.564 99.6905 20.564C100.123 20.564 100.512 20.5 100.859 20.372C101.211 20.244 101.571 20.0547 101.939 19.804L102.571 20.692C102.176 21.0013 101.725 21.244 101.219 21.42C100.717 21.596 100.203 21.684 99.6745 21.684C98.8585 21.684 98.1625 21.5 97.5865 21.132C97.0105 20.764 96.5705 20.252 96.2665 19.596C95.9678 18.9347 95.8185 18.1693 95.8185 17.3C95.8185 16.4467 95.9705 15.6893 96.2745 15.028C96.5785 14.3667 97.0052 13.8467 97.5545 13.468C98.1038 13.0893 98.7518 12.9 99.4985 12.9C100.208 12.9 100.819 13.068 101.331 13.404C101.843 13.7347 102.235 14.2093 102.507 14.828C102.784 15.4413 102.923 16.1747 102.923 17.028C102.923 17.172 102.92 17.308 102.915 17.436C102.909 17.5587 102.901 17.668 102.891 17.764H97.2265ZM99.5145 14.004C98.8905 14.004 98.3678 14.2253 97.9465 14.668C97.5305 15.1107 97.2932 15.796 97.2345 16.724H101.627C101.611 15.8227 101.413 15.1453 101.035 14.692C100.656 14.2333 100.149 14.004 99.5145 14.004ZM109.044 9.684V19.42C109.044 19.836 109.172 20.132 109.428 20.308C109.69 20.4787 110.026 20.564 110.436 20.564C110.692 20.564 110.935 20.5373 111.164 20.484C111.394 20.4307 111.623 20.3587 111.852 20.268L112.212 21.252C111.983 21.364 111.698 21.4627 111.356 21.548C111.02 21.6387 110.639 21.684 110.212 21.684C109.466 21.684 108.86 21.4787 108.396 21.068C107.932 20.652 107.7 20.0787 107.7 19.348V10.748H105.116V9.684H109.044ZM119.622 13.076V20.436H121.998V21.5H115.678V20.436H118.278V14.14H115.758V13.076H119.622ZM118.55 9.132C118.849 9.132 119.086 9.22267 119.262 9.404C119.443 9.58533 119.534 9.80667 119.534 10.068C119.534 10.34 119.443 10.5693 119.262 10.756C119.086 10.9373 118.849 11.028 118.55 11.028C118.267 11.028 118.035 10.9373 117.854 10.756C117.673 10.5693 117.582 10.34 117.582 10.068C117.582 9.80667 117.673 9.58533 117.854 9.404C118.035 9.22267 118.267 9.132 118.55 9.132ZM130.984 19.66C130.984 19.996 131.04 20.2413 131.152 20.396C131.264 20.5507 131.437 20.6653 131.672 20.74L131.344 21.684C130.981 21.636 130.664 21.5213 130.392 21.34C130.12 21.1533 129.922 20.8733 129.8 20.5C129.496 20.8893 129.117 21.1853 128.664 21.388C128.21 21.5853 127.709 21.684 127.16 21.684C126.317 21.684 125.653 21.4467 125.168 20.972C124.682 20.4973 124.44 19.868 124.44 19.084C124.44 18.2147 124.778 17.548 125.456 17.084C126.133 16.62 127.112 16.388 128.392 16.388H129.632V15.684C129.632 15.076 129.453 14.6467 129.096 14.396C128.744 14.14 128.253 14.012 127.624 14.012C127.346 14.012 127.021 14.0467 126.648 14.116C126.274 14.18 125.869 14.2893 125.432 14.444L125.08 13.428C125.597 13.236 126.082 13.1 126.536 13.02C126.989 12.94 127.421 12.9 127.832 12.9C128.882 12.9 129.669 13.1453 130.192 13.636C130.72 14.1213 130.984 14.7827 130.984 15.62V19.66ZM127.504 20.66C127.92 20.66 128.317 20.556 128.696 20.348C129.074 20.1347 129.386 19.8413 129.632 19.468V17.3H128.416C127.488 17.3 126.832 17.46 126.448 17.78C126.069 18.1 125.88 18.5293 125.88 19.068C125.88 19.5907 126.013 19.988 126.28 20.26C126.552 20.5267 126.96 20.66 127.504 20.66ZM137.41 20.572C138.055 20.572 138.564 20.452 138.938 20.212C139.316 19.9667 139.506 19.6413 139.506 19.236C139.506 18.98 139.458 18.7587 139.362 18.572C139.271 18.3853 139.082 18.2173 138.794 18.068C138.506 17.9187 138.063 17.7693 137.466 17.62C136.884 17.476 136.378 17.3107 135.946 17.124C135.519 16.932 135.186 16.684 134.946 16.38C134.711 16.076 134.594 15.6813 134.594 15.196C134.594 14.7213 134.727 14.3133 134.993 13.972C135.266 13.6253 135.642 13.3613 136.122 13.18C136.602 12.9933 137.159 12.9 137.794 12.9C138.471 12.9 139.06 12.9907 139.562 13.172C140.068 13.348 140.498 13.5667 140.85 13.828L140.258 14.74C139.938 14.5213 139.586 14.3427 139.202 14.204C138.818 14.06 138.354 13.988 137.81 13.988C137.148 13.988 136.679 14.092 136.402 14.3C136.124 14.5027 135.986 14.7667 135.986 15.092C135.986 15.3373 136.052 15.5427 136.186 15.708C136.324 15.868 136.556 16.0147 136.882 16.148C137.207 16.276 137.655 16.4173 138.226 16.572C138.775 16.716 139.252 16.8893 139.658 17.092C140.068 17.2947 140.388 17.5613 140.618 17.892C140.847 18.2227 140.962 18.6493 140.962 19.172C140.962 19.7693 140.791 20.2547 140.45 20.628C140.108 20.996 139.666 21.2653 139.122 21.436C138.583 21.6013 138.012 21.684 137.41 21.684C136.647 21.684 135.996 21.5747 135.458 21.356C134.924 21.132 134.476 20.8627 134.113 20.548L134.882 19.66C135.212 19.932 135.591 20.1533 136.018 20.324C136.45 20.4893 136.914 20.572 137.41 20.572ZM145.915 20.268C145.915 20.0067 145.977 19.772 146.099 19.564C146.222 19.3507 146.387 19.1827 146.595 19.06C146.809 18.932 147.049 18.868 147.315 18.868C147.587 18.868 147.83 18.932 148.043 19.06C148.257 19.1827 148.425 19.3507 148.547 19.564C148.67 19.772 148.731 20.0067 148.731 20.268C148.731 20.5293 148.67 20.7693 148.547 20.988C148.425 21.2013 148.257 21.372 148.043 21.5C147.83 21.6227 147.587 21.684 147.315 21.684C147.049 21.684 146.809 21.6227 146.595 21.5C146.387 21.372 146.222 21.2013 146.099 20.988C145.977 20.7693 145.915 20.5293 145.915 20.268ZM159.285 12.9C159.557 12.9 159.816 12.9587 160.061 13.076C160.312 13.1933 160.517 13.42 160.677 13.756C160.837 14.092 160.917 14.5827 160.917 15.228V21.5H159.669V15.444C159.669 14.916 159.637 14.5347 159.573 14.3C159.509 14.0653 159.325 13.948 159.021 13.948C158.77 13.948 158.52 14.028 158.269 14.188C158.024 14.3427 157.784 14.5987 157.549 14.956V21.5H156.293V15.444C156.293 14.916 156.261 14.5347 156.197 14.3C156.133 14.0653 155.949 13.948 155.645 13.948C155.384 13.948 155.13 14.028 154.885 14.188C154.645 14.3427 154.408 14.5987 154.173 14.956V21.5H152.933V13.076H153.989L154.069 14.052C154.298 13.7267 154.554 13.4547 154.837 13.236C155.125 13.012 155.48 12.9 155.901 12.9C156.221 12.9 156.522 12.9773 156.805 13.132C157.088 13.2813 157.296 13.5747 157.429 14.012C157.658 13.6813 157.917 13.4147 158.205 13.212C158.493 13.004 158.853 12.9 159.285 12.9ZM164.383 17.764C164.409 18.4147 164.535 18.948 164.759 19.364C164.983 19.7747 165.279 20.0787 165.647 20.276C166.015 20.468 166.415 20.564 166.847 20.564C167.279 20.564 167.668 20.5 168.015 20.372C168.367 20.244 168.727 20.0547 169.095 19.804L169.727 20.692C169.332 21.0013 168.881 21.244 168.375 21.42C167.873 21.596 167.359 21.684 166.831 21.684C166.015 21.684 165.319 21.5 164.743 21.132C164.167 20.764 163.727 20.252 163.423 19.596C163.124 18.9347 162.975 18.1693 162.975 17.3C162.975 16.4467 163.127 15.6893 163.431 15.028C163.735 14.3667 164.161 13.8467 164.711 13.468C165.26 13.0893 165.908 12.9 166.655 12.9C167.364 12.9 167.975 13.068 168.487 13.404C168.999 13.7347 169.391 14.2093 169.663 14.828C169.94 15.4413 170.079 16.1747 170.079 17.028C170.079 17.172 170.076 17.308 170.071 17.436C170.065 17.5587 170.057 17.668 170.047 17.764H164.383ZM166.671 14.004C166.047 14.004 165.524 14.2253 165.103 14.668C164.687 15.1107 164.449 15.796 164.391 16.724H168.783C168.767 15.8227 168.569 15.1453 168.191 14.692C167.812 14.2333 167.305 14.004 166.671 14.004Z" fill="#ABB2BF"/>
</svg>
