<svg width="95" height="32" viewBox="0 0 95 32" fill="none" xmlns="http://www.w3.org/2000/svg">
<path d="M11.2249 26C19.9045 26 24.6526 18.6883 24.6526 12.3587C24.6526 12.1541 24.6526 11.9466 24.6439 11.742C25.5683 11.0617 26.3661 10.2194 27 9.25459C26.1365 9.64165 25.2215 9.89676 24.2846 10.0116C25.2715 9.41189 26.0106 8.46827 26.3646 7.35615C25.4374 7.91461 24.4226 8.30664 23.3646 8.51509C22.6533 7.74493 21.712 7.23473 20.6866 7.0635C19.6612 6.89228 18.6089 7.06959 17.6927 7.56797C16.7764 8.06635 16.0474 8.85799 15.6185 9.82026C15.1896 10.7825 15.0848 11.8617 15.3203 12.8907C13.444 12.795 11.6084 12.2995 9.93262 11.4362C8.25682 10.5728 6.77823 9.36104 5.59275 7.87935C4.99093 8.93611 4.80726 10.1861 5.07905 11.3756C5.35085 12.565 6.05772 13.6047 7.05612 14.2835C6.30796 14.2576 5.57625 14.0534 4.92 13.6872V13.753C4.92129 14.86 5.2985 15.9326 5.98788 16.7895C6.67726 17.6464 7.63651 18.2351 8.7035 18.4559C8.2985 18.5694 7.88014 18.6259 7.46006 18.624C7.16391 18.6249 6.86836 18.597 6.57744 18.5407C6.87901 19.4937 7.46621 20.3269 8.25679 20.9236C9.04738 21.5203 10.0018 21.8507 10.9863 21.8685C9.3138 23.2039 7.24789 23.9282 5.12125 23.9247C4.74652 23.9263 4.37206 23.9044 4 23.859C6.15843 25.258 8.66512 26.0008 11.2249 26Z" fill="#ABB2BF"/>
<path d="M41.536 10.308C42.3627 10.308 43.0587 10.4333 43.624 10.684C44.1947 10.9293 44.6587 11.268 45.016 11.7C45.3787 12.132 45.656 12.6333 45.848 13.204C46.0453 13.7693 46.1813 14.372 46.256 15.012C46.3307 15.6467 46.368 16.292 46.368 16.948C46.368 18.292 46.304 19.4093 46.176 20.3C46.0533 21.1853 45.824 21.8467 45.488 22.284C45.152 22.7267 44.6613 22.948 44.016 22.948C43.6853 22.948 43.4 22.868 43.16 22.708C42.92 22.548 42.7227 22.3453 42.568 22.1C42.4133 21.86 42.3013 21.612 42.232 21.356C42.1627 21.0947 42.1307 20.868 42.136 20.676H42.072C41.976 20.9213 41.8373 21.164 41.656 21.404C41.48 21.6387 41.248 21.8333 40.96 21.988C40.672 22.148 40.3147 22.228 39.888 22.228C39.3067 22.228 38.8373 22.0707 38.48 21.756C38.128 21.4413 37.872 21.0067 37.712 20.452C37.552 19.8973 37.472 19.268 37.472 18.564C37.472 17.172 37.7493 16.1373 38.304 15.46C38.8587 14.7773 39.6267 14.436 40.608 14.436C40.9813 14.436 41.3387 14.476 41.68 14.556C42.0213 14.636 42.416 14.796 42.864 15.036V19.764C42.864 20.34 42.9147 20.78 43.016 21.084C43.1173 21.3827 43.2533 21.588 43.424 21.7C43.5947 21.812 43.784 21.868 43.992 21.868C44.2427 21.868 44.4373 21.7427 44.576 21.492C44.7147 21.2413 44.8133 20.892 44.872 20.444C44.9307 19.996 44.9653 19.476 44.976 18.884C44.9867 18.2867 44.992 17.6467 44.992 16.964C44.992 16.2013 44.9493 15.4893 44.864 14.828C44.7787 14.1613 44.616 13.5773 44.376 13.076C44.136 12.5747 43.7893 12.1827 43.336 11.9C42.8827 11.6173 42.288 11.476 41.552 11.476C41.0347 11.476 40.4693 11.572 39.856 11.764C39.248 11.9507 38.6027 12.3453 37.92 12.948L37.152 12.052C37.8667 11.428 38.5973 10.9827 39.344 10.716C40.096 10.444 40.8267 10.308 41.536 10.308ZM40.672 15.428C39.9413 15.428 39.4427 15.692 39.176 16.22C38.9093 16.748 38.776 17.5293 38.776 18.564C38.776 19.0867 38.8133 19.548 38.888 19.948C38.968 20.3427 39.1013 20.6547 39.288 20.884C39.4747 21.108 39.728 21.22 40.048 21.22C40.4213 21.22 40.7147 21.1347 40.928 20.964C41.1467 20.7933 41.312 20.5987 41.424 20.38C41.5413 20.156 41.632 19.9667 41.696 19.812V15.668C41.5307 15.5827 41.3653 15.5213 41.2 15.484C41.04 15.4467 40.864 15.428 40.672 15.428ZM49.2578 17.764C49.2844 18.4147 49.4098 18.948 49.6338 19.364C49.8578 19.7747 50.1538 20.0787 50.5218 20.276C50.8898 20.468 51.2898 20.564 51.7218 20.564C52.1538 20.564 52.5431 20.5 52.8898 20.372C53.2418 20.244 53.6018 20.0547 53.9698 19.804L54.6018 20.692C54.2071 21.0013 53.7564 21.244 53.2498 21.42C52.7484 21.596 52.2338 21.684 51.7058 21.684C50.8898 21.684 50.1938 21.5 49.6178 21.132C49.0418 20.764 48.6018 20.252 48.2978 19.596C47.9991 18.9347 47.8498 18.1693 47.8498 17.3C47.8498 16.4467 48.0018 15.6893 48.3058 15.028C48.6098 14.3667 49.0364 13.8467 49.5858 13.468C50.1351 13.0893 50.7831 12.9 51.5298 12.9C52.2391 12.9 52.8498 13.068 53.3618 13.404C53.8738 13.7347 54.2658 14.2093 54.5378 14.828C54.8151 15.4413 54.9538 16.1747 54.9538 17.028C54.9538 17.172 54.9511 17.308 54.9458 17.436C54.9404 17.5587 54.9324 17.668 54.9218 17.764H49.2578ZM51.5458 14.004C50.9218 14.004 50.3991 14.2253 49.9778 14.668C49.5618 15.1107 49.3244 15.796 49.2658 16.724H53.6578C53.6418 15.8227 53.4444 15.1453 53.0658 14.692C52.6871 14.2333 52.1804 14.004 51.5458 14.004ZM61.0755 9.684V19.42C61.0755 19.836 61.2035 20.132 61.4595 20.308C61.7208 20.4787 62.0568 20.564 62.4675 20.564C62.7235 20.564 62.9662 20.5373 63.1955 20.484C63.4248 20.4307 63.6542 20.3587 63.8835 20.268L64.2435 21.252C64.0142 21.364 63.7288 21.4627 63.3875 21.548C63.0515 21.6387 62.6702 21.684 62.2435 21.684C61.4968 21.684 60.8915 21.4787 60.4275 21.068C59.9635 20.652 59.7315 20.0787 59.7315 19.348V10.748H57.1475V9.684H61.0755ZM71.6533 13.076V20.436H74.0293V21.5H67.7093V20.436H70.3093V14.14H67.7893V13.076H71.6533ZM70.5813 9.132C70.8799 9.132 71.1173 9.22267 71.2933 9.404C71.4746 9.58533 71.5653 9.80667 71.5653 10.068C71.5653 10.34 71.4746 10.5693 71.2933 10.756C71.1173 10.9373 70.8799 11.028 70.5813 11.028C70.2986 11.028 70.0666 10.9373 69.8853 10.756C69.7039 10.5693 69.6133 10.34 69.6133 10.068C69.6133 9.80667 69.7039 9.58533 69.8853 9.404C70.0666 9.22267 70.2986 9.132 70.5813 9.132ZM83.015 19.66C83.015 19.996 83.071 20.2413 83.183 20.396C83.295 20.5507 83.4683 20.6653 83.703 20.74L83.375 21.684C83.0123 21.636 82.695 21.5213 82.423 21.34C82.151 21.1533 81.9537 20.8733 81.831 20.5C81.527 20.8893 81.1483 21.1853 80.695 21.388C80.2417 21.5853 79.7403 21.684 79.191 21.684C78.3483 21.684 77.6843 21.4467 77.199 20.972C76.7137 20.4973 76.471 19.868 76.471 19.084C76.471 18.2147 76.8097 17.548 77.487 17.084C78.1643 16.62 79.143 16.388 80.423 16.388H81.663V15.684C81.663 15.076 81.4843 14.6467 81.127 14.396C80.775 14.14 80.2843 14.012 79.655 14.012C79.3777 14.012 79.0523 14.0467 78.679 14.116C78.3057 14.18 77.9003 14.2893 77.463 14.444L77.111 13.428C77.6283 13.236 78.1137 13.1 78.567 13.02C79.0203 12.94 79.4523 12.9 79.863 12.9C80.9137 12.9 81.7003 13.1453 82.223 13.636C82.751 14.1213 83.015 14.7827 83.015 15.62V19.66ZM79.535 20.66C79.951 20.66 80.3483 20.556 80.727 20.348C81.1057 20.1347 81.4177 19.8413 81.663 19.468V17.3H80.447C79.519 17.3 78.863 17.46 78.479 17.78C78.1003 18.1 77.911 18.5293 77.911 19.068C77.911 19.5907 78.0443 19.988 78.311 20.26C78.583 20.5267 78.991 20.66 79.535 20.66ZM89.4408 20.572C90.0861 20.572 90.5954 20.452 90.9688 20.212C91.3474 19.9667 91.5368 19.6413 91.5368 19.236C91.5368 18.98 91.4888 18.7587 91.3928 18.572C91.3021 18.3853 91.1128 18.2173 90.8248 18.068C90.5368 17.9187 90.0941 17.7693 89.4968 17.62C88.9154 17.476 88.4088 17.3107 87.9768 17.124C87.5501 16.932 87.2168 16.684 86.9768 16.38C86.7421 16.076 86.6248 15.6813 86.6248 15.196C86.6248 14.7213 86.7581 14.3133 87.0247 13.972C87.2968 13.6253 87.6728 13.3613 88.1528 13.18C88.6328 12.9933 89.1901 12.9 89.8248 12.9C90.5021 12.9 91.0914 12.9907 91.5928 13.172C92.0994 13.348 92.5288 13.5667 92.8808 13.828L92.2888 14.74C91.9688 14.5213 91.6168 14.3427 91.2328 14.204C90.8488 14.06 90.3848 13.988 89.8408 13.988C89.1794 13.988 88.7101 14.092 88.4328 14.3C88.1554 14.5027 88.0168 14.7667 88.0168 15.092C88.0168 15.3373 88.0834 15.5427 88.2168 15.708C88.3554 15.868 88.5874 16.0147 88.9128 16.148C89.2381 16.276 89.6861 16.4173 90.2568 16.572C90.8061 16.716 91.2834 16.8893 91.6888 17.092C92.0994 17.2947 92.4194 17.5613 92.6488 17.892C92.8781 18.2227 92.9928 18.6493 92.9928 19.172C92.9928 19.7693 92.8221 20.2547 92.4808 20.628C92.1394 20.996 91.6968 21.2653 91.1528 21.436C90.6141 21.6013 90.0434 21.684 89.4408 21.684C88.6781 21.684 88.0274 21.5747 87.4888 21.356C86.9554 21.132 86.5074 20.8627 86.1447 20.548L86.9128 19.66C87.2434 19.932 87.6221 20.1533 88.0488 20.324C88.4808 20.4893 88.9448 20.572 89.4408 20.572Z" fill="#ABB2BF"/>
</svg>
